<?xml version="1.0" encoding="UTF-8"?>
<svg xmlns="http://www.w3.org/2000/svg" xmlns:xlink="http://www.w3.org/1999/xlink" width="16px" height="16px" viewBox="0 0 16 16" version="1.1">
<defs>
<clipPath id="clip1">
  <path d="M 7 5 L 12.304688 5 L 12.304688 13 L 7 13 Z M 7 5 "/>
</clipPath>
<clipPath id="clip2">
  <path d="M 3.6875 3 L 12.304688 3 L 12.304688 7 L 3.6875 7 Z M 3.6875 3 "/>
</clipPath>
<clipPath id="clip3">
  <path d="M 3.6875 5 L 8 5 L 8 13 L 3.6875 13 Z M 3.6875 5 "/>
</clipPath>
</defs>
<g id="surface1">
<path style=" stroke:none;fill-rule:nonzero;fill:rgb(11.372549%,14.509805%,17.647059%);fill-opacity:1;" d="M 2.890625 0 L 13.109375 0 C 14.707031 0 16 1.292969 16 2.890625 L 16 13.109375 C 16 14.707031 14.707031 16 13.109375 16 L 2.890625 16 C 1.292969 16 0 14.707031 0 13.109375 L 0 2.890625 C 0 1.292969 1.292969 0 2.890625 0 Z M 2.890625 0 "/>
<g clip-path="url(#clip1)" clip-rule="nonzero">
<path style=" stroke:none;fill-rule:nonzero;fill:rgb(0%,67.450982%,41.176471%);fill-opacity:1;" d="M 10.660156 6.460938 L 10.660156 9.539062 L 7.996094 11.074219 L 7.996094 13 L 12.324219 10.5 L 12.324219 5.5 Z M 10.660156 6.460938 "/>
</g>
<g clip-path="url(#clip2)" clip-rule="nonzero">
<path style=" stroke:none;fill-rule:nonzero;fill:rgb(10.980392%,90.588236%,51.372552%);fill-opacity:1;" d="M 7.996094 4.921875 L 10.660156 6.460938 L 12.324219 5.5 L 7.996094 3 L 3.667969 5.5 L 5.332031 6.460938 Z M 7.996094 4.921875 "/>
</g>
<g clip-path="url(#clip3)" clip-rule="nonzero">
<path style=" stroke:none;fill-rule:nonzero;fill:rgb(100%,100%,100%);fill-opacity:1;" d="M 6.332031 8.960938 L 6.332031 12.039062 L 7.996094 13 L 7.996094 8 L 3.667969 5.5 L 3.667969 7.421875 Z M 6.332031 8.960938 "/>
</g>
</g>
</svg>
